<svg width="110" height="36" viewBox="0 0 110 36" fill="none" xmlns="http://www.w3.org/2000/svg">
    <path d="M26.1935 32.2382L18.2561 35.4999L18.2256 35.4694H18.195C17.7676 34.4025 17.3708 33.427 16.9739 32.4515L16.7907 31.9943L21.1869 30.1957L19.5688 26.2938L13.0662 28.9764L6.59418 26.2938L5.00669 30.1348L9.37228 31.9638L9.18911 32.4211C8.79224 33.427 8.39537 34.4025 7.96797 35.439H7.93744L7.90691 35.4694L0 32.1772L1.2822 29.1288L10.0744 8.06445L12.1199 13.0333V13.0638L8.09008 22.6967L13.1273 24.8001L18.1645 22.7272L17.1876 20.319L14.1653 13.0638L16.2412 8.09494L26.1935 32.2382Z" fill="#2563EB"/>
    <path d="M15.2419 5.53946L13.1532 10.5484L11.0645 5.50892L13.1839 0.5L15.2419 5.53946Z" fill="#2563EB"/>
    <path d="M40.1736 22.52H34.9336L34.0936 25H30.5136L35.5936 10.96H39.5536L44.6336 25H41.0136L40.1736 22.52ZM39.2936 19.88L37.5536 14.74L35.8336 19.88H39.2936ZM47.6997 12.68C47.0997 12.68 46.6064 12.5067 46.2197 12.16C45.8464 11.8 45.6597 11.36 45.6597 10.84C45.6597 10.3067 45.8464 9.86667 46.2197 9.52C46.6064 9.16 47.0997 8.98 47.6997 8.98C48.2864 8.98 48.7664 9.16 49.1397 9.52C49.5264 9.86667 49.7197 10.3067 49.7197 10.84C49.7197 11.36 49.5264 11.8 49.1397 12.16C48.7664 12.5067 48.2864 12.68 47.6997 12.68ZM49.3997 13.84V25H45.9797V13.84H49.3997ZM58.4781 13.72C59.7848 13.72 60.8248 14.1467 61.5981 15C62.3848 15.84 62.7781 17 62.7781 18.48V25H59.3781V18.94C59.3781 18.1933 59.1848 17.6133 58.7981 17.2C58.4115 16.7867 57.8915 16.58 57.2381 16.58C56.5848 16.58 56.0648 16.7867 55.6781 17.2C55.2915 17.6133 55.0981 18.1933 55.0981 18.94V25H51.6781V13.84H55.0981V15.32C55.4448 14.8267 55.9115 14.44 56.4981 14.16C57.0848 13.8667 57.7448 13.72 58.4781 13.72ZM70.0347 25.16C68.9414 25.16 67.9547 24.9267 67.0747 24.46C66.208 23.9933 65.5214 23.3267 65.0147 22.46C64.5214 21.5933 64.2747 20.58 64.2747 19.42C64.2747 18.2733 64.528 17.2667 65.0347 16.4C65.5414 15.52 66.2347 14.8467 67.1147 14.38C67.9947 13.9133 68.9814 13.68 70.0747 13.68C71.168 13.68 72.1547 13.9133 73.0347 14.38C73.9147 14.8467 74.608 15.52 75.1147 16.4C75.6214 17.2667 75.8747 18.2733 75.8747 19.42C75.8747 20.5667 75.6147 21.58 75.0947 22.46C74.588 23.3267 73.888 23.9933 72.9947 24.46C72.1147 24.9267 71.128 25.16 70.0347 25.16ZM70.0347 22.2C70.688 22.2 71.2414 21.96 71.6947 21.48C72.1614 21 72.3947 20.3133 72.3947 19.42C72.3947 18.5267 72.168 17.84 71.7147 17.36C71.2747 16.88 70.728 16.64 70.0747 16.64C69.408 16.64 68.8547 16.88 68.4147 17.36C67.9747 17.8267 67.7547 18.5133 67.7547 19.42C67.7547 20.3133 67.968 21 68.3947 21.48C68.8347 21.96 69.3814 22.2 70.0347 22.2ZM91.7291 13.72C93.1157 13.72 94.2157 14.14 95.0291 14.98C95.8557 15.82 96.2691 16.9867 96.2691 18.48V25H92.8691V18.94C92.8691 18.22 92.6757 17.6667 92.2891 17.28C91.9157 16.88 91.3957 16.68 90.7291 16.68C90.0624 16.68 89.5357 16.88 89.1491 17.28C88.7757 17.6667 88.5891 18.22 88.5891 18.94V25H85.1891V18.94C85.1891 18.22 84.9957 17.6667 84.6091 17.28C84.2357 16.88 83.7157 16.68 83.0491 16.68C82.3824 16.68 81.8557 16.88 81.4691 17.28C81.0957 17.6667 80.9091 18.22 80.9091 18.94V25H77.4891V13.84H80.9091V15.24C81.2557 14.7733 81.7091 14.4067 82.2691 14.14C82.8291 13.86 83.4624 13.72 84.1691 13.72C85.0091 13.72 85.7557 13.9 86.4091 14.26C87.0757 14.62 87.5957 15.1333 87.9691 15.8C88.3557 15.1867 88.8824 14.6867 89.5491 14.3C90.2157 13.9133 90.9424 13.72 91.7291 13.72ZM109.861 13.84L102.861 30.3H99.1809L101.741 24.62L97.2009 13.84H101.021L103.601 20.82L106.161 13.84H109.861Z" fill="#2563EB"/>
</svg>
