<svg width="111" height="80" viewBox="0 0 111 80" fill="none" xmlns="http://www.w3.org/2000/svg">
    <path d="M26.1935 54.2383L18.2561 57.5001L18.2256 57.4696H18.195C17.7676 56.4026 17.3708 55.4272 16.9739 54.4517L16.7907 53.9944L21.1869 52.1959L19.5688 48.2939L13.0662 50.9765L6.59418 48.2939L5.00669 52.1349L9.37228 53.9639L9.18911 54.4212C8.79224 55.4272 8.39537 56.4026 7.96797 57.4391H7.93744L7.90691 57.4696L0 54.1773L1.2822 51.1289L10.0744 30.0646L12.1199 35.0334V35.0639L8.09008 44.6968L13.1273 46.8002L18.1645 44.7273L17.1876 42.3191L14.1653 35.0639L16.2412 30.0951L26.1935 54.2383Z" fill="white"/>
    <path d="M15.2419 27.5395L13.1532 32.5484L11.0645 27.5089L13.1839 22.5L15.2419 27.5395Z" fill="white"/>
    <path d="M40.1735 44.52H34.9335L34.0935 47H30.5135L35.5935 32.96H39.5535L44.6335 47H41.0135L40.1735 44.52ZM39.2935 41.88L37.5535 36.74L35.8335 41.88H39.2935ZM47.6996 34.68C47.0996 34.68 46.6063 34.5067 46.2196 34.16C45.8463 33.8 45.6596 33.36 45.6596 32.84C45.6596 32.3067 45.8463 31.8667 46.2196 31.52C46.6063 31.16 47.0996 30.98 47.6996 30.98C48.2863 30.98 48.7663 31.16 49.1396 31.52C49.5263 31.8667 49.7196 32.3067 49.7196 32.84C49.7196 33.36 49.5263 33.8 49.1396 34.16C48.7663 34.5067 48.2863 34.68 47.6996 34.68ZM49.3996 35.84V47H45.9796V35.84H49.3996ZM58.4781 35.72C59.7847 35.72 60.8247 36.1467 61.5981 37C62.3847 37.84 62.7781 39 62.7781 40.48V47H59.3781V40.94C59.3781 40.1933 59.1847 39.6133 58.7981 39.2C58.4114 38.7867 57.8914 38.58 57.2381 38.58C56.5847 38.58 56.0647 38.7867 55.6781 39.2C55.2914 39.6133 55.0981 40.1933 55.0981 40.94V47H51.6781V35.84H55.0981V37.32C55.4447 36.8267 55.9114 36.44 56.4981 36.16C57.0847 35.8667 57.7447 35.72 58.4781 35.72ZM70.0346 47.16C68.9413 47.16 67.9546 46.9267 67.0746 46.46C66.208 45.9933 65.5213 45.3267 65.0146 44.46C64.5213 43.5933 64.2746 42.58 64.2746 41.42C64.2746 40.2733 64.528 39.2667 65.0346 38.4C65.5413 37.52 66.2346 36.8467 67.1146 36.38C67.9946 35.9133 68.9813 35.68 70.0746 35.68C71.168 35.68 72.1546 35.9133 73.0346 36.38C73.9146 36.8467 74.608 37.52 75.1146 38.4C75.6213 39.2667 75.8746 40.2733 75.8746 41.42C75.8746 42.5667 75.6146 43.58 75.0946 44.46C74.588 45.3267 73.888 45.9933 72.9946 46.46C72.1146 46.9267 71.128 47.16 70.0346 47.16ZM70.0346 44.2C70.688 44.2 71.2413 43.96 71.6946 43.48C72.1613 43 72.3946 42.3133 72.3946 41.42C72.3946 40.5267 72.168 39.84 71.7146 39.36C71.2746 38.88 70.728 38.64 70.0746 38.64C69.408 38.64 68.8546 38.88 68.4146 39.36C67.9746 39.8267 67.7546 40.5133 67.7546 41.42C67.7546 42.3133 67.968 43 68.3946 43.48C68.8346 43.96 69.3813 44.2 70.0346 44.2ZM91.729 35.72C93.1157 35.72 94.2157 36.14 95.029 36.98C95.8557 37.82 96.269 38.9867 96.269 40.48V47H92.869V40.94C92.869 40.22 92.6757 39.6667 92.289 39.28C91.9157 38.88 91.3957 38.68 90.729 38.68C90.0623 38.68 89.5357 38.88 89.149 39.28C88.7757 39.6667 88.589 40.22 88.589 40.94V47H85.189V40.94C85.189 40.22 84.9957 39.6667 84.609 39.28C84.2357 38.88 83.7157 38.68 83.049 38.68C82.3823 38.68 81.8557 38.88 81.469 39.28C81.0957 39.6667 80.909 40.22 80.909 40.94V47H77.489V35.84H80.909V37.24C81.2557 36.7733 81.709 36.4067 82.269 36.14C82.829 35.86 83.4623 35.72 84.169 35.72C85.009 35.72 85.7557 35.9 86.409 36.26C87.0757 36.62 87.5957 37.1333 87.969 37.8C88.3557 37.1867 88.8823 36.6867 89.549 36.3C90.2157 35.9133 90.9423 35.72 91.729 35.72ZM109.861 35.84L102.861 52.3H99.1809L101.741 46.62L97.2009 35.84H101.021L103.601 42.82L106.161 35.84H109.861Z" fill="white"/>
</svg>
