<svg width="24" height="24" viewBox="0 0 24 24" fill="none" xmlns="http://www.w3.org/2000/svg">
    <g clip-path="url(#clip0_442_1615)">
        <path d="M23.3397 9.09347C23.3397 6.92503 21.9452 5.05514 19.9636 4.38961C19.844 1.94878 17.8207 0 15.3508 0C14.0515 0 12.8521 0.538781 12 1.43714C11.1479 0.538781 9.94851 0 8.64923 0C6.17925 0 4.15598 1.94878 4.0365 4.38961C2.0549 5.05519 0.660278 6.92508 0.660278 9.09347C0.660278 10.213 1.03298 11.2799 1.7069 12.1432C1.16597 12.95 0.876091 13.8975 0.876091 14.895C0.876091 16.9804 2.15629 18.7923 4.03298 19.5197C4.1062 22.0028 6.14883 24 8.64928 24C9.94847 24 11.148 23.4612 12.0001 22.5629C12.8521 23.4612 14.0516 24 15.3508 24C17.8511 24 19.8938 22.0028 19.9671 19.5198C21.8437 18.7923 23.124 16.9804 23.124 14.895C23.124 13.8975 22.8341 12.95 22.2931 12.1432C22.967 11.2799 23.3397 10.2129 23.3397 9.09347ZM10.9092 20.2895C10.5405 21.2096 9.6517 21.8182 8.64923 21.8182C7.30575 21.8182 6.21272 20.7252 6.21272 19.3816C6.21272 19.228 6.22772 19.0718 6.25744 18.9176C6.25772 18.9159 6.25781 18.9143 6.25818 18.9126C6.35086 18.437 6.58167 18.0035 6.92639 17.6587C7.35244 17.2327 7.35244 16.542 6.92639 16.116C6.50044 15.6899 5.80964 15.6899 5.38364 16.116C5.02308 16.4766 4.72842 16.8891 4.50684 17.3381C3.63272 16.8637 3.05789 15.941 3.05789 14.895C3.05789 14.1268 3.36515 13.4114 3.92311 12.8804C3.92658 12.8771 3.92953 12.8733 3.9329 12.8699C4.45078 12.3822 5.12714 12.1135 5.83931 12.1135H7.63631C8.23879 12.1135 8.72723 11.625 8.72723 11.0226C8.72723 10.4201 8.23879 9.93164 7.63631 9.93164H5.83936C4.9357 9.93164 4.06481 10.1749 3.30431 10.6279C3.0059 10.1779 2.84208 9.64734 2.84208 9.09342C2.84208 7.67911 3.89995 6.49153 5.30287 6.33103C5.60245 6.29677 5.87442 6.14006 6.05428 5.89809C6.23419 5.65612 6.3059 5.35055 6.25247 5.05378C6.22608 4.90739 6.21276 4.76091 6.21276 4.61831C6.21267 3.27497 7.3057 2.18194 8.64919 2.18194C9.65175 2.18194 10.5404 2.79047 10.9091 3.71067V20.2895H10.9092ZM16.3638 12.1136H18.1608C18.8729 12.1136 19.5491 12.3822 20.0668 12.8697C20.0703 12.8731 20.0734 12.877 20.0769 12.8805C20.6349 13.4115 20.9422 14.127 20.9422 14.8951C20.9422 15.941 20.3674 16.8637 19.4933 17.338C19.2717 16.8889 18.9771 16.4764 18.6164 16.1159C18.1904 15.6899 17.4996 15.6899 17.0737 16.116C16.6477 16.542 16.6477 17.2327 17.0737 17.6587C17.4182 18.003 17.649 18.4362 17.7418 18.9116C17.7421 18.9135 17.7422 18.9156 17.7427 18.9175C17.7723 19.0717 17.7874 19.2278 17.7874 19.3815C17.7874 20.7251 16.6943 21.8181 15.3509 21.8181C14.3484 21.8181 13.4597 21.2096 13.0911 20.2894V3.71053C13.4596 2.79033 14.3483 2.1818 15.3508 2.1818C16.6942 2.1818 17.7873 3.27483 17.7873 4.61831C17.7873 4.76114 17.7739 4.90767 17.7476 5.05378C17.6942 5.3505 17.7659 5.65612 17.9458 5.89809C18.1257 6.14006 18.3977 6.29677 18.6972 6.33112C20.1 6.49172 21.1579 7.67925 21.1579 9.09352C21.1579 9.64739 20.994 10.178 20.6957 10.6279C19.9353 10.1751 19.0645 9.93178 18.1607 9.93178H16.3637C15.7612 9.93178 15.2728 10.4202 15.2728 11.0227C15.2729 11.6251 15.7613 12.1136 16.3638 12.1136Z" fill="black"/>
    </g>
    <defs>
        <clipPath id="clip0_442_1615">
            <rect width="24" height="24" fill="white"/>
        </clipPath>
    </defs>
</svg>
