<svg width="242" height="217" viewBox="0 0 242 217" fill="none" xmlns="http://www.w3.org/2000/svg">
    <path d="M118.064 0.473121L125.938 2.50192L222.951 27.4972L230.825 29.526C234.647 30.5153 237.92 32.979 239.926 36.3766C241.933 39.7741 242.508 43.828 241.526 47.6489L207.382 179.936C206.392 183.754 203.926 187.025 200.525 189.029C197.125 191.033 193.067 191.608 189.243 190.628L189.223 190.622L76.5024 161.58L76.4821 161.575C72.66 160.585 69.3868 158.122 67.3806 154.724C65.3743 151.327 64.7989 147.273 65.7805 143.452L99.925 11.1652C100.915 7.34653 103.381 4.07623 106.782 2.07176C110.182 0.0672992 114.24 -0.507626 118.064 0.473121Z" fill="#F2F2F2"/>
    <path d="M116.993 4.62067L126.32 7.02365L220.428 31.2706L229.754 33.6736C232.476 34.3781 234.807 36.1325 236.236 38.552C237.665 40.9715 238.074 43.8583 237.375 46.5793L203.231 178.866C202.526 181.585 200.77 183.914 198.348 185.342C195.926 186.769 193.037 187.178 190.314 186.48L190.293 186.475L77.573 157.432L77.5525 157.427C74.8308 156.723 72.4999 154.968 71.0712 152.549C69.6425 150.129 69.2328 147.242 69.9318 144.521L104.076 12.2348C104.781 9.51542 106.537 7.18657 108.959 5.75915C111.381 4.33172 114.27 3.92229 116.993 4.62067V4.62067Z" fill="white"/>
    <path d="M124.036 47.4584L181.058 62.1503C181.695 62.3144 182.371 62.219 182.937 61.8851C183.504 61.5511 183.914 61.0061 184.079 60.3698C184.243 59.7334 184.147 59.058 183.813 58.492C183.479 57.9261 182.934 57.5159 182.297 57.3518L125.274 42.66C124.638 42.4965 123.962 42.5923 123.396 42.9263C122.83 43.2603 122.42 43.8051 122.256 44.441C122.092 45.077 122.187 45.752 122.521 46.3178C122.854 46.8836 123.399 47.2939 124.036 47.4584V47.4584Z" fill="#F2F2F2"/>
    <path d="M112.04 53.0037L178.968 70.2477C179.605 70.4118 180.281 70.3164 180.847 69.9825C181.414 69.6486 181.824 69.1035 181.989 68.4672C182.153 67.8309 182.057 67.1554 181.723 66.5895C181.389 66.0235 180.843 65.6133 180.207 65.4492L113.279 48.2052C112.642 48.0411 111.966 48.1365 111.399 48.4704C110.833 48.8043 110.422 49.3494 110.258 49.9857C110.094 50.622 110.189 51.2975 110.523 51.8634C110.858 52.4294 111.403 52.8396 112.04 53.0037V53.0037Z" fill="#F2F2F2"/>
    <path d="M114.669 83.7468L171.692 98.4387C172.007 98.5199 172.335 98.5383 172.658 98.4928C172.98 98.4473 173.291 98.3388 173.571 98.1734C173.852 98.0081 174.097 97.7892 174.293 97.5292C174.488 97.2692 174.631 96.9732 174.712 96.6581C174.794 96.3431 174.812 96.0151 174.767 95.6929C174.721 95.3707 174.612 95.0607 174.447 94.7804C174.281 94.5002 174.062 94.2552 173.802 94.0596C173.542 93.864 173.246 93.7215 172.93 93.6402L115.908 78.9484C115.592 78.8671 115.264 78.8487 114.942 78.8942C114.619 78.9397 114.309 79.0482 114.028 79.2136C113.748 79.3789 113.503 79.5978 113.307 79.8578C113.111 80.1178 112.969 80.4138 112.887 80.7289C112.806 81.044 112.787 81.3719 112.833 81.6941C112.879 82.0163 112.987 82.3264 113.153 82.6066C113.318 82.8869 113.537 83.1318 113.797 83.3274C114.058 83.5231 114.354 83.6656 114.669 83.7468V83.7468Z" fill="#F2F2F2"/>
    <path d="M102.674 89.292L169.602 106.536C169.917 106.617 170.245 106.636 170.568 106.59C170.89 106.545 171.201 106.436 171.481 106.271C171.762 106.105 172.007 105.887 172.203 105.627C172.398 105.367 172.541 105.071 172.622 104.756C172.704 104.44 172.722 104.112 172.677 103.79C172.631 103.468 172.522 103.158 172.357 102.878C172.191 102.598 171.972 102.353 171.712 102.157C171.452 101.961 171.156 101.819 170.84 101.738L103.912 84.4935C103.275 84.3294 102.599 84.4248 102.033 84.7588C101.466 85.0927 101.056 85.6377 100.892 86.2741C100.727 86.9104 100.823 87.5858 101.157 88.1518C101.491 88.7178 102.037 89.1279 102.674 89.292Z" fill="#F2F2F2"/>
    <path d="M105.303 120.035L162.325 134.727C162.962 134.891 163.638 134.795 164.204 134.461C164.77 134.127 165.18 133.582 165.344 132.946C165.508 132.31 165.413 131.635 165.079 131.069C164.745 130.503 164.2 130.093 163.564 129.929L106.541 115.237C105.905 115.073 105.229 115.168 104.662 115.502C104.096 115.836 103.685 116.381 103.521 117.017C103.357 117.654 103.452 118.329 103.786 118.895C104.12 119.461 104.666 119.871 105.303 120.035Z" fill="#F2F2F2"/>
    <path d="M93.3073 125.58L160.235 142.824C160.551 142.906 160.879 142.925 161.202 142.879C161.525 142.834 161.835 142.726 162.116 142.56C162.397 142.395 162.642 142.176 162.838 141.916C163.034 141.656 163.177 141.36 163.258 141.044C163.339 140.729 163.358 140.401 163.312 140.079C163.267 139.756 163.158 139.446 162.992 139.166C162.826 138.885 162.607 138.64 162.347 138.445C162.086 138.249 161.789 138.107 161.474 138.026L94.5458 120.782C93.9089 120.618 93.2329 120.713 92.6664 121.047C92.0999 121.381 91.6894 121.926 91.5251 122.562C91.3609 123.199 91.4564 123.874 91.7906 124.44C92.1248 125.006 92.6704 125.416 93.3073 125.58V125.58Z" fill="#F2F2F2"/>
    <path d="M190.793 77.2146L210.972 82.4139C211.278 82.4923 211.602 82.4464 211.873 82.2863C212.145 82.1263 212.342 81.8651 212.421 81.5602L217.053 63.6135C217.131 63.3084 217.085 62.9846 216.925 62.7134C216.765 62.4421 216.504 62.2453 216.198 62.1664L196.019 56.967C195.713 56.8887 195.389 56.9346 195.118 57.0947C194.846 57.2547 194.649 57.5159 194.57 57.8208L189.938 75.7675C189.86 76.0726 189.906 76.3963 190.066 76.6676C190.226 76.9389 190.487 77.1357 190.793 77.2146V77.2146Z" fill="#E6E6E6"/>
    <path d="M181.426 113.503L201.606 118.702C201.911 118.781 202.235 118.735 202.507 118.575C202.778 118.415 202.975 118.153 203.054 117.849L207.687 99.9018C207.765 99.5967 207.719 99.273 207.559 99.0017C207.399 98.7304 207.137 98.5337 206.832 98.4547L186.652 93.2554C186.347 93.1771 186.023 93.223 185.752 93.383C185.48 93.5431 185.283 93.8042 185.204 94.1091L180.572 112.056C180.493 112.361 180.539 112.685 180.7 112.956C180.86 113.227 181.121 113.424 181.426 113.503V113.503Z" fill="#E6E6E6"/>
    <path d="M172.06 149.791L192.24 154.991C192.545 155.069 192.869 155.023 193.141 154.863C193.412 154.703 193.609 154.442 193.688 154.137L198.32 136.19C198.399 135.885 198.353 135.561 198.192 135.29C198.032 135.019 197.771 134.822 197.466 134.743L177.286 129.544C176.981 129.465 176.657 129.511 176.385 129.671C176.114 129.831 175.917 130.093 175.838 130.397L171.205 148.344C171.127 148.649 171.173 148.973 171.333 149.244C171.493 149.516 171.755 149.712 172.06 149.791V149.791Z" fill="#E6E6E6"/>
    <path d="M39.4189 34.0061H155.869C159.817 34.0105 163.602 35.5796 166.394 38.3689C169.186 41.1583 170.757 44.9402 170.761 48.8849V185.5C170.757 189.444 169.186 193.226 166.394 196.016C163.602 198.805 159.817 200.374 155.869 200.378H39.4189C35.4707 200.374 31.6854 198.805 28.8936 196.016C26.1017 193.226 24.5313 189.444 24.5269 185.5V48.8849C24.5313 44.9402 26.1017 41.1583 28.8936 38.3689C31.6854 35.5796 35.4707 34.0105 39.4189 34.0061V34.0061Z" fill="#E6E6E6"/>
    <path d="M39.4188 38.2893H155.869C158.681 38.2925 161.376 39.4098 163.364 41.3961C165.352 43.3825 166.471 46.0757 166.474 48.8848V185.499C166.471 188.309 165.352 191.002 163.364 192.988C161.376 194.974 158.681 196.092 155.869 196.095H39.4188C36.6071 196.092 33.9116 194.974 31.9235 192.988C29.9354 191.002 28.8171 188.309 28.8139 185.499V48.8848C28.8171 46.0757 29.9354 43.3826 31.9235 41.3962C33.9116 39.4098 36.6071 38.2925 39.4188 38.2893V38.2893Z" fill="white"/>
    <path d="M56.9446 113.359H115.833C116.158 113.359 116.481 113.295 116.782 113.171C117.084 113.047 117.357 112.864 117.588 112.634C117.819 112.404 118.001 112.131 118.126 111.83C118.251 111.529 118.315 111.207 118.315 110.881C118.315 110.555 118.251 110.233 118.126 109.932C118.001 109.631 117.819 109.358 117.588 109.128C117.357 108.898 117.084 108.715 116.782 108.591C116.481 108.467 116.158 108.403 115.833 108.403H56.9446C56.2874 108.404 55.6573 108.665 55.1928 109.13C54.7283 109.595 54.4674 110.224 54.4674 110.881C54.4674 111.538 54.7283 112.167 55.1928 112.632C55.6573 113.097 56.2874 113.358 56.9446 113.359V113.359Z" fill="#E6E6E6"/>
    <path d="M46.7149 121.721H115.833C116.158 121.721 116.481 121.658 116.782 121.533C117.084 121.409 117.357 121.226 117.588 120.996C117.819 120.766 118.001 120.493 118.126 120.192C118.251 119.891 118.315 119.569 118.315 119.243C118.315 118.918 118.251 118.595 118.126 118.295C118.001 117.994 117.819 117.72 117.588 117.49C117.357 117.26 117.084 117.078 116.782 116.953C116.481 116.829 116.158 116.765 115.833 116.766H46.7149C46.0572 116.766 45.4264 117.027 44.9613 117.491C44.4962 117.956 44.235 118.586 44.235 119.243C44.235 119.9 44.4962 120.531 44.9613 120.995C45.4264 121.46 46.0572 121.721 46.7149 121.721Z" fill="#E6E6E6"/>
    <path d="M56.9446 150.834H115.833C116.158 150.835 116.481 150.771 116.782 150.647C117.084 150.522 117.357 150.34 117.588 150.11C117.819 149.88 118.001 149.606 118.126 149.305C118.251 149.005 118.315 148.682 118.315 148.357C118.315 148.031 118.251 147.709 118.126 147.408C118.001 147.107 117.819 146.834 117.588 146.604C117.357 146.374 117.084 146.191 116.782 146.067C116.481 145.942 116.158 145.879 115.833 145.879H56.9446C56.2869 145.879 55.6561 146.14 55.191 146.605C54.7259 147.069 54.4647 147.699 54.4647 148.357C54.4647 149.014 54.7259 149.644 55.191 150.109C55.6561 150.573 56.2869 150.834 56.9446 150.834V150.834Z" fill="#E6E6E6"/>
    <path d="M46.7149 159.197H115.833C116.158 159.197 116.481 159.133 116.782 159.009C117.084 158.884 117.357 158.702 117.588 158.472C117.819 158.242 118.001 157.969 118.126 157.668C118.251 157.367 118.315 157.045 118.315 156.719C118.315 156.393 118.251 156.071 118.126 155.77C118.001 155.469 117.819 155.196 117.588 154.966C117.357 154.736 117.084 154.553 116.782 154.429C116.481 154.305 116.158 154.241 115.833 154.241H46.7149C46.389 154.241 46.0662 154.305 45.765 154.429C45.4638 154.553 45.1901 154.736 44.9595 154.966C44.7289 155.196 44.546 155.469 44.4212 155.77C44.2964 156.071 44.2322 156.393 44.2322 156.719C44.2322 157.045 44.2964 157.367 44.4212 157.668C44.546 157.969 44.7289 158.242 44.9595 158.472C45.1901 158.702 45.4638 158.884 45.765 159.009C46.0662 159.133 46.389 159.197 46.7149 159.197Z" fill="#E6E6E6"/>
    <path d="M129.024 125.517H149.864C150.179 125.517 150.481 125.392 150.704 125.169C150.927 124.946 151.053 124.644 151.053 124.329V105.795C151.053 105.48 150.927 105.178 150.704 104.956C150.481 104.733 150.179 104.608 149.864 104.607H129.024C128.709 104.608 128.406 104.733 128.183 104.956C127.96 105.178 127.835 105.48 127.835 105.795V124.329C127.835 124.644 127.96 124.946 128.183 125.169C128.406 125.392 128.709 125.517 129.024 125.517V125.517Z" fill="#E6E6E6"/>
    <path d="M129.024 162.993H149.864C150.179 162.992 150.481 162.867 150.704 162.644C150.927 162.422 151.053 162.12 151.053 161.805V143.271C151.053 142.956 150.927 142.654 150.704 142.431C150.481 142.208 150.179 142.083 149.864 142.083H129.024C128.709 142.083 128.406 142.208 128.183 142.431C127.96 142.654 127.835 142.956 127.835 143.271V161.805C127.835 162.12 127.96 162.422 128.183 162.644C128.406 162.867 128.709 162.992 129.024 162.993V162.993Z" fill="#E6E6E6"/>
    <path d="M56.8793 71.641H100.295C100.953 71.641 101.583 71.3799 102.049 70.9153C102.514 70.4506 102.775 69.8204 102.775 69.1633C102.775 68.5061 102.514 67.8759 102.049 67.4112C101.583 66.9466 100.953 66.6855 100.295 66.6855H56.8793C56.2216 66.6855 55.5908 66.9466 55.1257 67.4112C54.6606 67.8759 54.3994 68.5061 54.3994 69.1633C54.3994 69.8204 54.6606 70.4506 55.1257 70.9153C55.5908 71.3799 56.2216 71.641 56.8793 71.641Z" fill="#CCCCCC"/>
    <path d="M46.6496 80.0033H100.295C100.621 80.0033 100.943 79.9392 101.244 79.8147C101.545 79.6902 101.818 79.5077 102.049 79.2776C102.279 79.0475 102.462 78.7744 102.586 78.4737C102.711 78.1731 102.775 77.8509 102.775 77.5256C102.775 77.2002 102.711 76.878 102.586 76.5774C102.462 76.2768 102.279 76.0036 102.049 75.7736C101.818 75.5435 101.545 75.361 101.244 75.2364C100.943 75.1119 100.621 75.0479 100.295 75.0479H46.6496C45.9919 75.0479 45.3611 75.3089 44.896 75.7736C44.4309 76.2382 44.1696 76.8684 44.1696 77.5256C44.1696 78.1827 44.4309 78.8129 44.896 79.2776C45.3611 79.7422 45.9919 80.0033 46.6496 80.0033V80.0033Z" fill="#CCCCCC"/>
    <path d="M109.904 90.1375H149.929C150.244 90.1371 150.547 90.0119 150.77 89.7891C150.992 89.5664 151.118 89.2644 151.118 88.9494V57.7396C151.118 57.4246 150.992 57.1226 150.77 56.8999C150.547 56.6771 150.244 56.5519 149.929 56.5515H109.904C109.588 56.5519 109.286 56.6771 109.063 56.8999C108.84 57.1226 108.715 57.4246 108.714 57.7396V88.9494C108.715 89.2644 108.84 89.5664 109.063 89.7891C109.286 90.0119 109.588 90.1371 109.904 90.1375V90.1375Z" fill="#CCCCCC"/>
</svg>
