<svg width="24" height="24" viewBox="0 0 24 24" fill="none" xmlns="http://www.w3.org/2000/svg">
    <path d="M21.2109 0.515625H2.78907C2.25939 0.515625 1.83282 0.942188 1.83282 1.47188V22.5281C1.83282 23.0578 2.25939 23.4844 2.78907 23.4844H15.8719C16.575 23.5969 17.3297 22.6172 17.3297 22.6172L21.7641 18.1828C21.7641 18.1828 22.1719 17.8688 22.1672 17.3859V1.47188C22.1672 0.942188 21.7406 0.515625 21.2109 0.515625ZM17.025 20.2172V18.3422H18.9L17.025 20.2172ZM20.2547 16.425H16.0688C15.5391 16.425 15.1125 16.8516 15.1125 17.3813V21.5672H3.74532V2.42813H20.2547V16.425Z" fill="black"/>
    <path d="M8.40937 10.8234H15.5859C16.1156 10.8234 16.5422 10.3968 16.5422 9.86714C16.5422 9.33745 16.1156 8.91089 15.5859 8.91089H8.40937C7.87969 8.91089 7.45312 9.33745 7.45312 9.86714C7.45312 10.3968 7.88437 10.8234 8.40937 10.8234Z" fill="black"/>
    <path d="M8.40937 14.7938H15.5859C16.1156 14.7938 16.5422 14.3673 16.5422 13.8376C16.5422 13.3079 16.1156 12.8813 15.5859 12.8813H8.40937C7.87969 12.8813 7.45312 13.3079 7.45312 13.8376C7.45312 14.3626 7.88437 14.7938 8.40937 14.7938Z" fill="black"/>
</svg>
