<svg width="60" height="60" viewBox="0 0 60 60" fill="none" xmlns="http://www.w3.org/2000/svg">
    <path d="M58.2729 53.6313L52.9376 45.2471L49.3677 48.817C48.8024 49.3818 47.8861 49.3818 47.3208 48.817L44.3257 45.8216L37.7929 49.0881C37.5873 49.1909 37.3657 49.241 37.1461 49.241C36.7705 49.241 36.4002 49.0949 36.1222 48.8172L32.8865 45.5814L28.4954 53.6317H58.2729V53.6313Z" fill="white"/>
    <path d="M34.2079 37.1132L37.9293 30.2908C38.798 28.6983 40.3992 27.7108 42.2123 27.6498C44.0188 27.5894 45.6893 28.4657 46.6634 29.9964L52.7026 39.4865C57.1331 36.116 60 30.7906 60 24.8065C60 14.6395 51.7287 6.36816 41.5616 6.36816C32.8772 6.36816 25.5814 12.4053 23.637 20.5017L34.2079 37.1132Z" fill="white"/>
    <path d="M37.4311 46.0325L43.9638 42.766C44.5214 42.4876 45.1939 42.5967 45.6345 43.0369L48.344 45.7466L51.377 42.7947L44.2214 31.5501C43.803 30.8927 43.085 30.5127 42.3097 30.5424C41.5309 30.5687 40.8432 30.9927 40.4703 31.6765L34.3273 42.939L37.4311 46.0325Z" fill="white"/>
    <path d="M26.9699 37.6184C26.4046 38.1832 25.4883 38.1832 24.923 37.6184L22.2135 34.9087L15.7711 41.3513C15.4893 41.6329 15.1188 41.7752 14.7475 41.7752C14.404 41.7752 14.0598 41.6535 13.7848 41.4083L8.99576 37.1398L0 53.6315H25.198L32.6244 40.0164L29.4929 35.0954L26.9699 37.6184Z" fill="white"/>
    <path d="M14.6905 38.338L21.1901 31.8382C21.7554 31.2733 22.6717 31.2733 23.237 31.8382L25.9465 34.5479L27.9008 32.5933L21.039 21.8103C20.6206 21.1531 19.9055 20.7707 19.1275 20.8026C18.3487 20.8289 17.661 21.2529 17.2879 21.937L10.4158 34.536L14.6905 38.338Z" fill="white"/>
</svg>
