<svg width="24" height="24" viewBox="0 0 24 24" fill="none" xmlns="http://www.w3.org/2000/svg">
    <path d="M6.71667 8.37813H8.55295V13.6058C8.55295 14.0505 8.9136 14.4111 9.35828 14.4111H14.6417C15.0864 14.4111 15.447 14.0505 15.447 13.6058V8.37813H17.2833C17.609 8.37813 17.9028 8.18193 18.0274 7.881C18.152 7.57999 18.0831 7.23365 17.8527 7.00326L12.5694 1.71995C12.2548 1.40552 11.745 1.40552 11.4304 1.71995L6.14713 7.00326C5.91683 7.23365 5.84798 7.57999 5.97251 7.881C6.09719 8.18193 6.39085 8.37813 6.71667 8.37813ZM12 3.42831L15.3391 6.76738H14.6418C14.197 6.76738 13.8364 7.12803 13.8364 7.57272V12.8004H10.1637V7.5728C10.1637 7.12803 9.80305 6.76746 9.35837 6.76746H8.66107L12 3.42831Z" fill="black"/>
    <path d="M23.1947 10.9546H19.4631C19.0183 10.9546 18.6578 11.3152 18.6578 11.7599V15.9299H5.34222V11.7599C5.34222 11.3152 4.98158 10.9546 4.53689 10.9546H0.805333C0.360566 10.9546 0 11.3152 0 11.7599V19.0094C0 20.943 1.57309 22.516 3.50667 22.516H20.4933C22.4269 22.516 24 20.943 24 19.0094V11.7599C24 11.3152 23.6394 10.9546 23.1947 10.9546ZM22.3893 19.0094C22.3893 20.0548 21.5387 20.9053 20.4933 20.9053H3.50667C2.46125 20.9053 1.61075 20.0548 1.61075 19.0094V12.5653H3.73156V16.7354C3.73156 17.1801 4.0922 17.5407 4.53689 17.5407H19.4631C19.9079 17.5407 20.2684 17.18 20.2684 16.7354V12.5653H22.3893V19.0094Z" fill="black"/>
</svg>
